#!OML:ASF X:\für Bonn\!DataBase\2005_08_12_Daniel\c3d\Daniel.ASF
:FULLY-SPECIFIED
:DEGREES
3025
root -18.6861 17.127 28.3131 -172.488 -69.8713 522.779
lowerback 10.431 -4.17266 -3.60691
upperback 0.668475 -6.01911 -0.0194894
thorax -4.76199 -2.91718 2.84373
lowerneck -2.97701 -1.81632 -8.01484
upperneck 17.4346 -4.02137 9.73997
head 6.06571 -2.04939 4.1788
rclavicle 9.42985e-014 3.26007e-014
rhumerus -38.2892 -8.71437 -83.7691
rradius 26.5347
rwrist 16.6519
rhand -15.0183 19.1748
rfingers 7.12502
rthumb 11.1471 -10.5091
lclavicle 9.42985e-014 3.26007e-014
lhumerus -30.7571 61.9411 70.1648
lradius 12.461
lwrist -67.6415
lhand -17.6642 -5.41929
lfingers 7.12502
lthumb 8.5944 24.3858
rfemur -10.0727 5.21936 24.9771
rtibia 41.7266
rfoot -22.7009 -2.93791
rtoes -0.854133
lfemur -11.9087 7.59426 -19.6253
ltibia 64.0637
lfoot -17.4288 -0.85112
ltoes -11.4328
3026
root -18.7245 17.1267 28.342 -173.601 -68.6469 523.926
lowerback 10.4955 -4.05847 -3.4596
upperback 0.750786 -5.85507 -0.0487528
thorax -4.74063 -2.84235 2.71258
lowerneck -2.82283 -1.75841 -7.79724
upperneck 17.3316 -3.96339 9.69757
head 5.99606 -2.01806 4.1313
rclavicle -4.13721e-014 1.35174e-014
rhumerus -38.0395 -7.83846 -84.6615
rradius 26.9884
rwrist 16.7201
rhand -14.9394 19.1355
rfingers 7.12502
rthumb 11.2232 -10.5443
lclavicle -4.13721e-014 1.35174e-014
lhumerus -46.6866 70.1829 52.8911
lradius 12.0075
lwrist -74.0584
lhand -18.3545 -5.17675
lfingers 7.12502
lthumb 7.92823 24.6546
rfemur -10.0495 5.78007 25.015
rtibia 41.7446
rfoot -22.4738 -2.25478
rtoes -1.0425
lfemur -12.1422 6.92769 -19.6418
ltibia 63.6628
lfoot -17.574 -0.716507
ltoes -10.6219
3027
root -18.7647 17.1304 28.3706 -174.563 -67.387 524.911
lowerback 10.5818 -3.93487 -3.31659
upperback 0.82601 -5.68132 -0.101476
thorax -4.74055 -2.76207 2.56009
lowerneck -2.67117 -1.69658 -7.57567
upperneck 17.2549 -3.90606 9.66958
head 5.93551 -1.98661 4.088
rclavicle 1.77043e-014 1.51076e-014
rhumerus -37.8363 -7.01202 -85.5377
rradius 27.4025
rwrist 16.6198
rhand -15.0088 19.0799
rfingers 7.12502
rthumb 11.1563 -10.6035
lclavicle 1.77043e-014 1.51076e-014
lhumerus -72.9709 74.4451 25.2664
lradius 11.7714
lwrist -79.2452
lhand -18.4814 -5.2314
lfingers 7.12502
lthumb 7.80568 24.6045
rfemur -9.96399 6.53963 25.0548
rtibia 41.6814
rfoot -22.2847 -1.64796
rtoes -0.786613
lfemur -12.3004 6.15293 -19.6701
ltibia 63.1345
lfoot -17.7323 -0.709151
ltoes -9.60711
3028
root -18.8042 17.1398 28.3997 -175.4 -66.1103 525.797
lowerback 10.6527 -3.80257 -3.14925
upperback 0.901857 -5.49336 -0.170335
thorax -4.73471 -2.67554 2.3737
lowerneck -2.56059 -1.6504 -7.31932
upperneck 17.1708 -3.8627 9.61487
head 5.88056 -1.95961 4.02878
rclavicle -2.64756e-014 -1.19271e-014
rhumerus -37.6033 -6.34912 -86.3683
rradius 27.7129
rwrist 16.4578
rhand -15.1604 19.1213
rfingers 7.12502
rthumb 11.0101 -10.5699
lclavicle -2.64756e-014 -1.19271e-014
lhumerus -99.1386 74.2042 -2.09216
lradius 11.7763
lwrist -82.9658
lhand -18.0378 -5.13704
lfingers 7.12502
lthumb 8.23384 24.6825
rfemur -9.87996 7.26182 25.069
rtibia 41.5361
rfoot -22.002 -0.987181
rtoes -0.782063
lfemur -12.4362 5.25879 -19.7138
ltibia 62.4664
lfoot -18.0267 -0.82785
ltoes -9.12373
3029
root -18.8453 17.155 28.4297 -176.115 -64.7996 526.596
lowerback 10.6824 -3.68882 -2.9793
upperback 0.97068 -5.32724 -0.222954
thorax -4.70925 -2.59993 2.20218
lowerneck -2.48126 -1.59579 -7.16574
upperneck 17.1258 -3.79959 9.55949
head 5.84345 -1.92842 3.98838
rclavicle 7.36746e-014 1.59028e-015
rhumerus -37.4077 -5.39273 -87.272
rradius 28.0911
rwrist 15.8377
rhand -15.4142 19.0461
rfingers 7.12502
rthumb 10.7652 -10.6581
lclavicle 7.36746e-014 1.59028e-015
lhumerus -115.482 71.7091 -19.5305
lradius 11.833
lwrist -85.5023
lhand -17.1059 -4.86726
lfingers 7.12502
lthumb 9.13313 24.915
rfemur -9.80353 7.94013 25.05
rtibia 41.3339
rfoot -21.6824 -0.248904
rtoes -0.613079
lfemur -12.5402 4.28165 -19.7708
ltibia 61.673
lfoot -18.4172 -1.16953
ltoes -8.90379
3030
root -18.8854 17.1688 28.4601 -176.807 -63.4929 527.327
lowerback 10.7892 -3.56018 -2.79486
upperback 1.03814 -5.14376 -0.294257
thorax -4.73076 -2.51511 2.00662
lowerneck -2.38756 -1.54915 -6.97944
upperneck 17.0815 -3.75266 9.50748
head 5.80516 -1.90374 3.94256
rclavicle 4.12168e-014 1.90833e-014
rhumerus -37.2242 -4.51641 -88.1224
rradius 28.4523
rwrist 15.1409
rhand -15.5939 19.049
rfingers 7.12502
rthumb 10.5919 -10.6641
lclavicle 4.12168e-014 1.90833e-014
lhumerus -125.697 68.4182 -30.8626
lradius 11.9424
lwrist -88.1056
lhand -15.7681 -4.54632
lfingers 7.12502
lthumb 10.4239 25.1753
rfemur -9.69273 8.64181 25.046
rtibia 41.1316
rfoot -21.373 0.449164
rtoes -0.327744
lfemur -12.5127 3.1321 -19.845
ltibia 60.7398
lfoot -18.8732 -1.71475
ltoes -8.0786
3031
root -18.9264 17.1819 28.4913 -177.385 -62.1369 527.996
lowerback 10.824 -3.41685 -2.58602
upperback 1.10183 -4.93598 -0.383108
thorax -4.71923 -2.41948 1.77011
lowerneck -2.32245 -1.52267 -6.74263
upperneck 17.0195 -3.72903 9.43453
head 5.76758 -1.8872 3.87952
rclavicle 3.64894e-014 -2.22639e-014
rhumerus -37.0355 -3.75276 -88.9243
rradius 28.7246
rwrist 14.4305
rhand -15.8242 19.1079
rfingers 7.12502
rthumb 10.3698 -10.6164
lclavicle 3.64894e-014 -2.22639e-014
lhumerus -131.899 65.0405 -38.2051
lradius 12.1187
lwrist -90.9298
lhand -14.0507 -4.07455
lfingers 7.12502
lthumb 12.0802 25.5567
rfemur -9.66097 9.31144 25.0113
rtibia 40.9508
rfoot -21.0114 1.22098
rtoes -0.116434
lfemur -12.4438 1.80225 -19.9633
ltibia 59.6981
lfoot -19.4059 -2.30564
ltoes -7.16335
